ffmpeg version 6.1.1-3ubuntu5 Copyright (c) 2000-2023 the FFmpeg developers
  built with gcc 13 (Ubuntu 13.2.0-23ubuntu3)
  configuration: --prefix=/usr --extra-version=3ubuntu5 --toolchain=hardened --libdir=/usr/lib/x86_64-linux-gnu --incdir=/usr/include/x86_64-linux-gnu --arch=amd64 --enable-gpl --disable-stripping --disable-omx --enable-gnutls --enable-libaom --enable-libass --enable-libbs2b --enable-libcaca --enable-libcdio --enable-libcodec2 --enable-libdav1d --enable-libflite --enable-libfontconfig --enable-libfreetype --enable-libfribidi --enable-libglslang --enable-libgme --enable-libgsm --enable-libharfbuzz --enable-libmp3lame --enable-libmysofa --enable-libopenjpeg --enable-libopenmpt --enable-libopus --enable-librubberband --enable-libshine --enable-libsnappy --enable-libsoxr --enable-libspeex --enable-libtheora --enable-libtwolame --enable-libvidstab --enable-libvorbis --enable-libvpx --enable-libwebp --enable-libx265 --enable-libxml2 --enable-libxvid --enable-libzimg --enable-openal --enable-opencl --enable-opengl --disable-sndio --enable-libvpl --disable-libmfx --enable-libdc1394 --enable-libdrm --enable-libiec61883 --enable-chromaprint --enable-frei0r --enable-ladspa --enable-libbluray --enable-libjack --enable-libpulse --enable-librabbitmq --enable-librist --enable-libsrt --enable-libssh --enable-libsvtav1 --enable-libx264 --enable-libzmq --enable-libzvbi --enable-lv2 --enable-sdl2 --enable-libplacebo --enable-librav1e --enable-pocketsphinx --enable-librsvg --enable-libjxl --enable-shared
  libavutil      58. 29.100 / 58. 29.100
  libavcodec     60. 31.102 / 60. 31.102
  libavformat    60. 16.100 / 60. 16.100
  libavdevice    60.  3.100 / 60.  3.100
  libavfilter     9. 12.100 /  9. 12.100
  libswscale      7.  5.100 /  7.  5.100
  libswresample   4. 12.100 /  4. 12.100
  libpostproc    57.  3.100 / 57.  3.100
[x11grab @ 0x5647242385c0] Stream #0: not enough frames to estimate rate; consider increasing probesize
Input #0, x11grab, from ':1':
  Duration: N/A, start: 1781285655.141009, bitrate: 884736 kb/s
  Stream #0:0: Video: rawvideo (BGR[0] / 0x524742), bgr0, 1280x720, 884736 kb/s, 30 fps, 1000k tbr, 1000k tbn
Stream mapping:
  Stream #0:0 -> #0:0 (rawvideo (native) -> h264 (libx264))
Press [q] to stop, [?] for help
[libx264 @ 0x564724241300] using cpu capabilities: MMX2 SSE2Fast SSSE3 SSE4.2 AVX FMA3 BMI2 AVX2 AVX512
[libx264 @ 0x564724241300] profile High, level 3.1, 4:2:0, 8-bit
[libx264 @ 0x564724241300] 264 - core 164 r3108 31e19f9 - H.264/MPEG-4 AVC codec - Copyleft 2003-2023 - http://www.videolan.org/x264.html - options: cabac=1 ref=3 deblock=1:0:0 analyse=0x3:0x113 me=hex subme=7 psy=1 psy_rd=1.00:0.00 mixed_ref=1 me_range=16 chroma_me=1 trellis=1 8x8dct=1 cqm=0 deadzone=21,11 fast_pskip=1 chroma_qp_offset=-2 threads=6 lookahead_threads=1 sliced_threads=0 nr=0 decimate=1 interlaced=0 bluray_compat=0 constrained_intra=0 bframes=3 b_pyramid=2 b_adapt=1 b_bias=0 direct=1 weightb=1 open_gop=0 weightp=2 keyint=250 keyint_min=15 scenecut=40 intra_refresh=0 rc_lookahead=40 rc=crf mbtree=1 crf=32.0 qcomp=0.60 qpmin=0 qpmax=69 qpstep=4 ip_ratio=1.40 aq=1:1.00
Output #0, mp4, to '../../evidence/participant.mp4':
  Metadata:
    encoder         : Lavf60.16.100
  Stream #0:0: Video: h264 (avc1 / 0x31637661), yuv420p(tv, progressive), 1280x720, q=2-31, 15 fps, 15360 tbn
    Metadata:
      encoder         : Lavc60.31.102 libx264
    Side data:
      cpb: bitrate max/min/avg: 0/0/0 buffer size: 0 vbv_delay: N/A
frame=    0 fps=0.0 q=0.0 size=       0kB time=N/A bitrate=N/A speed=N/A    frame=    0 fps=0.0 q=0.0 size=       0kB time=N/A bitrate=N/A speed=N/A    frame=    0 fps=0.0 q=0.0 size=       0kB time=N/A bitrate=N/A speed=N/A    frame=    0 fps=0.0 q=0.0 size=       0kB time=N/A bitrate=N/A speed=N/A    frame=    0 fps=0.0 q=0.0 size=       0kB time=N/A bitrate=N/A speed=N/A    frame=    0 fps=0.0 q=0.0 size=       0kB time=N/A bitrate=N/A speed=N/A    frame=    0 fps=0.0 q=0.0 size=       0kB time=N/A bitrate=N/A speed=N/A    frame=    5 fps=1.4 q=36.0 size=       0kB time=00:00:00.13 bitrate=   2.9kbits/s speed=0.0367x    frame=   13 fps=3.1 q=36.0 size=       0kB time=00:00:00.66 bitrate=   0.6kbits/s speed=0.16x    frame=   21 fps=4.5 q=36.0 size=       0kB time=00:00:01.20 bitrate=   0.3kbits/s speed=0.255x    frame=   29 fps=5.6 q=36.0 size=       0kB time=00:00:01.73 bitrate=   0.2kbits/s speed=0.333x    frame=   37 fps=6.5 q=36.0 size=       0kB time=00:00:02.26 bitrate=   0.2kbits/s speed=0.395x    frame=   44 fps=7.1 q=36.0 size=       0kB time=00:00:02.73 bitrate=   0.1kbits/s speed=0.439x    frame=   52 fps=7.7 q=36.0 size=       0kB time=00:00:03.26 bitrate=   0.1kbits/s speed=0.483x    frame=   60 fps=8.2 q=36.0 size=       0kB time=00:00:03.80 bitrate=   0.1kbits/s speed=0.52x    frame=   68 fps=8.7 q=36.0 size=       0kB time=00:00:04.40 bitrate=   0.1kbits/s speed=0.562x    frame=   76 fps=9.1 q=36.0 size=       0kB time=00:00:04.86 bitrate=   0.1kbits/s speed=0.582x    frame=   83 fps=9.4 q=36.0 size=       0kB time=00:00:05.40 bitrate=   0.1kbits/s speed=0.609x    frame=   92 fps=9.8 q=36.0 size=       0kB time=00:00:05.93 bitrate=   0.1kbits/s speed=0.631x    frame=   99 fps= 10 q=36.0 size=       0kB time=00:00:06.40 bitrate=   0.1kbits/s speed=0.646x    frame=  107 fps= 10 q=36.0 size=       0kB time=00:00:06.93 bitrate=   0.1kbits/s speed=0.665x    frame=  115 fps= 10 q=36.0 size=       0kB time=00:00:07.46 bitrate=   0.1kbits/s speed=0.681x    frame=  123 fps= 11 q=36.0 size=       0kB time=00:00:08.00 bitrate=   0.0kbits/s speed=0.696x    frame=  131 fps= 11 q=36.0 size=       0kB time=00:00:08.53 bitrate=   0.0kbits/s speed=0.709x    frame=  139 fps= 11 q=36.0 size=       0kB time=00:00:09.13 bitrate=   0.0kbits/s speed=0.727x    frame=  146 fps= 11 q=36.0 size=       0kB time=00:00:09.60 bitrate=   0.0kbits/s speed=0.735x    frame=  154 fps= 11 q=36.0 size=       0kB time=00:00:10.06 bitrate=   0.0kbits/s speed=0.742x    frame=  162 fps= 11 q=36.0 size=       0kB time=00:00:10.60 bitrate=   0.0kbits/s speed=0.752x    frame=  170 fps= 12 q=36.0 size=       0kB time=00:00:11.13 bitrate=   0.0kbits/s speed=0.761x    frame=  178 fps= 12 q=36.0 size=       0kB time=00:00:11.66 bitrate=   0.0kbits/s speed=0.769x    frame=  186 fps= 12 q=36.0 size=       0kB time=00:00:12.20 bitrate=   0.0kbits/s speed=0.777x    frame=  194 fps= 12 q=36.0 size=       0kB time=00:00:12.73 bitrate=   0.0kbits/s speed=0.784x    frame=  202 fps= 12 q=36.0 size=       0kB time=00:00:13.26 bitrate=   0.0kbits/s speed=0.791x    frame=  210 fps= 12 q=36.0 size=       0kB time=00:00:13.80 bitrate=   0.0kbits/s speed=0.798x    frame=  218 fps= 12 q=36.0 size=       0kB time=00:00:14.33 bitrate=   0.0kbits/s speed=0.804x    frame=  226 fps= 12 q=36.0 size=       0kB time=00:00:14.86 bitrate=   0.0kbits/s speed=0.809x    frame=  234 fps= 12 q=36.0 size=       0kB time=00:00:15.40 bitrate=   0.0kbits/s speed=0.815x    frame=  242 fps= 12 q=36.0 size=       0kB time=00:00:15.93 bitrate=   0.0kbits/s speed=0.82x    frame=  250 fps= 13 q=36.0 size=       0kB time=00:00:16.46 bitrate=   0.0kbits/s speed=0.825x    frame=  258 fps= 13 q=36.0 size=       0kB time=00:00:17.00 bitrate=   0.0kbits/s speed=0.829x    frame=  266 fps= 13 q=36.0 size=       0kB time=00:00:17.53 bitrate=   0.0kbits/s speed=0.834x    frame=  274 fps= 13 q=36.0 size=       0kB time=00:00:18.06 bitrate=   0.0kbits/s speed=0.838x    frame=  282 fps= 13 q=36.0 size=       0kB time=00:00:18.60 bitrate=   0.0kbits/s speed=0.842x    frame=  290 fps= 13 q=36.0 size=       0kB time=00:00:19.13 bitrate=   0.0kbits/s speed=0.845x    frame=  298 fps= 13 q=36.0 size=       0kB time=00:00:19.66 bitrate=   0.0kbits/s speed=0.849x    frame=  306 fps= 13 q=36.0 size=       0kB time=00:00:20.20 bitrate=   0.0kbits/s speed=0.852x    frame=  314 fps= 13 q=36.0 size=       0kB time=00:00:20.73 bitrate=   0.0kbits/s speed=0.856x    frame=  321 fps= 13 q=36.0 size=       0kB time=00:00:21.26 bitrate=   0.0kbits/s speed=0.86x    frame=  329 fps= 13 q=36.0 size=       0kB time=00:00:21.73 bitrate=   0.0kbits/s speed=0.861x    frame=  336 fps= 13 q=36.0 size=       0kB time=00:00:22.26 bitrate=   0.0kbits/s speed=0.865x    frame=  344 fps= 13 q=36.0 size=       0kB time=00:00:22.80 bitrate=   0.0kbits/s speed=0.868x    frame=  352 fps= 13 q=36.0 size=       0kB time=00:00:23.26 bitrate=   0.0kbits/s speed=0.869x    frame=  360 fps= 13 q=36.0 size=       0kB time=00:00:23.80 bitrate=   0.0kbits/s speed=0.872x    [mp4 @ 0x5647242407c0] Starting second pass: moving the moov atom to the beginning of the file
[out#0/mp4 @ 0x56472423fb40] video:237kB audio:0kB subtitle:0kB other streams:0kB global headers:0kB muxing overhead: 2.391445%
frame=  418 fps= 15 q=-1.0 Lsize=     243kB time=00:00:27.66 bitrate=  72.0kbits/s speed=0.991x    
[libx264 @ 0x564724241300] frame I:3     Avg QP:26.98  size: 27349
[libx264 @ 0x564724241300] frame P:118   Avg QP:28.33  size:  1084
[libx264 @ 0x564724241300] frame B:297   Avg QP:38.06  size:   109
[libx264 @ 0x564724241300] consecutive B-frames:  3.8%  2.9%  4.3% 89.0%
[libx264 @ 0x564724241300] mb I  I16..4: 27.6% 60.2% 12.2%
[libx264 @ 0x564724241300] mb P  I16..4:  1.3%  2.5%  0.6%  P16..4:  0.7%  0.1%  0.1%  0.0%  0.0%    skip:94.7%
[libx264 @ 0x564724241300] mb B  I16..4:  0.1%  0.2%  0.0%  B16..8:  2.0%  0.0%  0.0%  direct: 0.0%  skip:97.7%  L0:56.7% L1:43.2% BI: 0.1%
[libx264 @ 0x564724241300] 8x8 transform intra:59.3% inter:55.5%
[libx264 @ 0x564724241300] coded y,uvDC,uvAC intra: 10.4% 16.4% 10.8% inter: 0.0% 0.1% 0.0%
[libx264 @ 0x564724241300] i16 v,h,dc,p: 29% 70%  1%  0%
[libx264 @ 0x564724241300] i8 v,h,dc,ddl,ddr,vr,hd,vl,hu: 30%  6% 62%  0%  0%  0%  0%  0%  0%
[libx264 @ 0x564724241300] i4 v,h,dc,ddl,ddr,vr,hd,vl,hu: 29% 25% 23%  3%  4%  4%  6%  3%  4%
[libx264 @ 0x564724241300] i8c dc,h,v,p: 65% 28%  7%  0%
[libx264 @ 0x564724241300] Weighted P-Frames: Y:0.0% UV:0.0%
[libx264 @ 0x564724241300] ref P L0: 57.4%  5.9% 24.9% 11.9%
[libx264 @ 0x564724241300] ref B L0: 63.4% 31.0%  5.6%
[libx264 @ 0x564724241300] ref B L1: 95.0%  5.0%
[libx264 @ 0x564724241300] kb/s:69.57
Exiting normally, received signal 2.
